<svg width="512" height="512" viewBox="0 0 512 512" fill="none" xmlns="http://www.w3.org/2000/svg">
  <!-- Background -->
  <rect width="512" height="512" fill="#122118" rx="115"/>

  <!-- Dumbbell Icon -->
  <path d="M406 234H362V198C362 185.85 352.15 176 340 176H324C311.85 176 302 185.85 302 198V234H210V198C210 185.85 200.15 176 188 176H172C159.85 176 150 185.85 150 198V234H106C93.85 234 84 243.85 84 256C84 268.15 93.85 278 106 278H150V314C150 326.15 159.85 336 172 336H188C200.15 336 210 326.15 210 314V278H302V314C302 326.15 311.85 336 324 336H340C352.15 336 362 326.15 362 314V278H406C418.15 278 428 268.15 428 256C428 243.85 418.15 234 406 234Z" fill="#38e07b"/>
</svg>
